# xmcd
#
# Track frame offsets:
# 150
# 19222
# 36034
# 63136
# 80463
# 110091
# 131326
# 154632
#
# Disc length: 2277 seconds
#
# Revision: 0
# Processed by: cddbd v1.5.2PL0 Copyright (c) Steve Scherf et al.
# Submitted via: Audion 3.0.2 (http://www.panic.com/audion/)
#
DISCID=5b08e308
DTITLE=Trisomie 21 - Last Song
DYEAR=1900
DGENRE=
TTITLE0=Last Song
TTITLE1=Is anybody  home ? (part 1)
TTITLE2=Joh'Burg "Live"
TTITLE3=Djakarta
TTITLE4=La Fête triste
TTITLE5=There's something strange tonight
TTITLE6=Logical animals
TTITLE7=Waiting for
EXTD=
EXTT0=
EXTT1=
EXTT2=
EXTT3=
EXTT4=
EXTT5=
EXTT6=
EXTT7=
PLAYORDER=
